<svg width="33" height="17" viewBox="0 0 33 17" fill="none" xmlns="http://www.w3.org/2000/svg">
<path d="M31.7109 7.21093H4.41129L8.93358 2.71056C9.43819 2.20834 9.44012 1.39217 8.9379 0.887566C8.43568 0.382898 7.61945 0.381029 7.11484 0.883183L0.379236 7.58631C0.378785 7.58669 0.378463 7.58715 0.378076 7.58753C-0.125238 8.08975 -0.12685 8.90856 0.377947 9.41246C0.378398 9.41284 0.37872 9.41329 0.379107 9.41368L7.11472 16.1168C7.61926 16.6189 8.43549 16.6172 8.93777 16.1124C9.43999 15.6078 9.43806 14.7916 8.93345 14.2894L4.41129 9.78906H31.7109C32.4229 9.78906 33 9.21194 33 8.49999C33 7.78805 32.4229 7.21093 31.7109 7.21093Z" fill="black"/>
</svg>
