<svg width="124" height="124" viewBox="0 0 124 124" fill="none" xmlns="http://www.w3.org/2000/svg">
<path d="M15.1959 61L4.00003 42L15.1959 23H32.8042L44 42L32.8042 61H15.1959Z" fill="#49C9F2"/>
<path d="M47.0356 82L35 62L47.0356 42H65.9645L78 62L65.9645 82H47.0356Z" fill="#49C9F2"/>
<path d="M79.0356 102L67 82.5L79.0356 63H97.9645L110 82.5L97.9645 102H79.0356Z" fill="#49C9F2"/>
<path d="M14.8752 103L2.00003 82.5L14.8752 62H35.1248L48 82.5L35.1248 103H14.8752Z" fill="#49C9F2"/>
<path d="M47.0356 122L35 102.5L47.0356 83H65.9645L78 102.5L65.9645 122H47.0356Z" fill="#49C9F2"/>
<path d="M29.7224 32.0332V28.0439H17.6807L9.92145 40.9793L13.3423 43.0338L19.9406 32.0332H29.7224Z" fill="#333333"/>
<path d="M67.1063 62.9804L70.5272 60.9259L62.768 47.9905H50.7262V51.9798H60.508L67.1063 62.9804Z" fill="#333333"/>
<path d="M79.2518 59.9585L67.2838 40.0119H47.3373L35.3693 20.0653H13.1648L0 42.0065L11.968 61.9531L0 81.8997L13.1648 103.841H33.1113L45.0793 123.788H67.2858L79.2538 103.841H99.2004L112.365 81.8997L99.2004 59.9585H79.2518ZM75.7971 61.9531L70.4115 70.9291L65.0259 79.905H47.3392L41.9537 70.9291L36.5681 61.9531L41.9537 52.9771L47.3392 44.0012H65.0259L75.7971 61.9531ZM15.4227 24.0546H33.1094L43.8805 42.0065L38.4949 50.9825L33.1094 59.9585H15.4227L4.65155 42.0065L15.4227 24.0546ZM4.65155 81.8997L15.4227 63.9478H33.1094L38.4949 72.9237L43.8805 81.8997L38.4949 90.8757L33.1094 99.8516H15.4227L4.65155 81.8997ZM65.0259 119.798H47.3392L36.5681 101.846L41.9537 92.8703L47.3392 83.8944H65.0259L70.4115 92.8703L75.7971 101.846L65.0259 119.798ZM96.9404 99.8516H79.2538L73.8682 90.8757L68.4826 81.8997L73.8682 72.9237L79.2538 63.9478H96.9404L107.712 81.8997L96.9404 99.8516Z" fill="#333333"/>
<path d="M77.7857 81.8997L84.3502 70.959L80.9293 68.9045L73.1342 81.8997L81.5098 95.8623H94.0801V91.873H83.7697L77.7857 81.8997Z" fill="#333333"/>
<path d="M13.3423 80.8725L9.92145 82.927L17.6807 95.8623H29.7224V91.873H19.9406L13.3423 80.8725Z" fill="#333333"/>
<path d="M62.1656 87.8837H58.1762V91.873H62.1656V87.8837Z" fill="#333333"/>
<path d="M41.2196 101.846L49.0148 114.842L52.4356 112.787L45.8712 101.846L51.8551 91.873H54.1869V87.8837H49.5952L41.2196 101.846Z" fill="#333333"/>
<path d="M117.372 25.5426C113.349 21.7069 108.663 19.5327 104.694 19.3053C105.15 18.316 105.416 17.2269 105.416 16.076C105.416 14.3665 104.845 12.7908 103.894 11.4922L104.321 10.6764C105.984 7.5069 108.851 5.14124 112.393 4.01425L111.184 0.212433C106.634 1.66056 102.94 4.71837 100.786 8.82338L100.734 8.92112C99.6452 8.41048 98.4364 8.09732 97.1439 8.09732C95.8514 8.09732 94.6426 8.41048 93.5535 8.92112L93.5017 8.82338C91.3494 4.71637 87.6573 1.65856 83.1055 0.212433L81.8987 4.01425C85.4412 5.14124 88.3076 7.5069 89.9691 10.6764L90.398 11.4922C89.4465 12.7908 88.876 14.3665 88.876 16.076C88.876 17.3166 89.1952 18.4755 89.7218 19.5247C86.1633 20.1889 82.2258 22.2494 78.7691 25.5446C74.6162 29.498 72.1389 34.3111 72.1389 38.4102C72.1389 40.6641 72.8968 42.577 74.331 43.9434C75.7771 45.3197 77.7518 45.9799 79.9958 45.9799C81.6933 45.9799 83.5463 45.581 85.4353 44.8509C87.1726 52.6859 91.7663 57.9638 97.1439 57.9638C102.695 57.9638 107.41 52.287 109.01 44.1049C111.476 45.3237 113.939 45.9799 116.143 45.9799C118.387 45.9799 120.362 45.3217 121.808 43.9434C123.242 42.577 124 40.6641 124 38.4102C124 34.3111 121.523 29.498 117.372 25.5426ZM98.0694 33.603C98.5262 34.4587 99.0668 35.3085 99.6731 36.1462C98.6239 36.0744 97.5767 36.0505 96.5196 36.0684C97.102 35.2566 97.6266 34.4328 98.0694 33.603ZM101.426 16.076C101.426 18.2741 99.5056 20.0653 97.1439 20.0653C94.7842 20.0653 92.8654 18.2741 92.8654 16.076C92.8654 13.8759 94.7862 12.0866 97.1439 12.0866C99.5056 12.0866 101.426 13.8759 101.426 16.076ZM77.0836 41.0571C76.4493 40.4527 76.1282 39.5611 76.1282 38.4102C76.1282 35.4242 78.1946 31.6004 81.5217 28.4289C86.8136 23.3844 92.8953 22.1557 95.0395 24.1982C95.6718 24.8026 95.995 25.6922 95.995 26.8431C95.995 29.8271 93.9285 33.6529 90.6014 36.8264C85.3116 41.8749 79.2279 43.1056 77.0836 41.0571ZM97.1439 53.9745C94.7742 53.9745 92.4983 51.8941 90.9066 48.6188C94.8301 47.825 99.4477 47.821 103.371 48.6148C101.783 51.8801 99.5215 53.9745 97.1439 53.9745ZM104.756 44.8429C99.9863 43.7738 94.3015 43.7678 89.5323 44.831C89.3747 44.2346 89.2311 43.6242 89.1174 42.9899C90.3222 42.2399 91.505 41.3543 92.6479 40.337C96.356 39.8124 100.511 39.972 103.99 40.7778C104.436 41.1568 104.889 41.5119 105.348 41.851C105.204 42.8882 105.007 43.8915 104.756 44.8429ZM119.055 41.0571C116.915 43.1036 110.831 41.8729 105.539 36.8264C102.212 33.6529 100.146 29.8271 100.146 26.8431C100.146 25.6922 100.467 24.8026 101.101 24.1982C101.754 23.5759 102.773 23.2547 104.023 23.2547C106.878 23.2547 110.939 24.9203 114.619 28.4289C117.944 31.6004 120.011 35.4242 120.011 38.4102C120.011 39.5611 119.69 40.4527 119.055 41.0571Z" fill="#333333"/>
</svg>
