<svg width="45" height="45" viewBox="0 0 45 45" fill="none" xmlns="http://www.w3.org/2000/svg">
<circle cx="22.5" cy="22.5" r="22.5" fill="#E0E0E0"/>
<g clip-path="url(#clip0)">
<path d="M30.752 14.9849C30.4023 14.6351 29.982 14.4603 29.4906 14.4603H11.6298C11.1387 14.4603 10.7183 14.6351 10.3683 14.9849C10.0186 15.3347 9.84375 15.755 9.84375 16.2462V29.8204C9.84375 30.3117 10.0186 30.7321 10.3683 31.0819C10.7183 31.4317 11.1387 31.6065 11.6298 31.6065H29.4909C29.982 31.6065 30.4024 31.4317 30.7522 31.0819C31.1019 30.7321 31.2769 30.3117 31.2769 29.8204V16.2462C31.2769 15.755 31.1019 15.3347 30.752 14.9849ZM29.8477 29.8204C29.8477 29.9173 29.8126 30.0007 29.7419 30.0717C29.6711 30.1421 29.5874 30.1774 29.4906 30.1774H11.6298C11.5331 30.1774 11.4494 30.1421 11.3787 30.0717C11.3081 30.0008 11.2727 29.9173 11.2727 29.8204V16.2461C11.2727 16.1493 11.3079 16.0658 11.3787 15.9949C11.4494 15.9244 11.5332 15.8891 11.6298 15.8891H29.4909C29.5875 15.8891 29.6713 15.9244 29.7419 15.9949C29.8123 16.0658 29.8477 16.1493 29.8477 16.2461V29.8204Z" fill="#333333"/>
<path d="M14.8448 21.6045C15.4403 21.6045 15.9463 21.3962 16.3631 20.9794C16.7798 20.5626 16.9882 20.0566 16.9882 19.4613C16.9882 18.8658 16.7797 18.3599 16.3631 17.943C15.9463 17.5264 15.4402 17.318 14.8448 17.318C14.2495 17.318 13.7435 17.5264 13.3267 17.943C12.9101 18.3598 12.7017 18.8658 12.7017 19.4613C12.7017 20.0566 12.9099 20.5627 13.3267 20.9794C13.7435 21.3961 14.2495 21.6045 14.8448 21.6045Z" fill="#333333"/>
<path d="M18.0599 24.8194L16.2738 23.0334L12.7017 26.6055V28.7489H28.4192V23.7479L23.7754 19.1039L18.0599 24.8194Z" fill="#333333"/>
</g>
<g clip-path="url(#clip1)">
<path d="M35.6344 12.5523H33.6324C33.5674 12.5523 33.5147 12.4996 33.5147 12.4346V10.4326C33.5147 10.1074 33.251 9.84375 32.9258 9.84375C32.6007 9.84375 32.337 10.1074 32.337 10.4326V12.4346C32.337 12.4996 32.2843 12.5523 32.2192 12.5523H30.2172C29.8921 12.5523 29.6284 12.816 29.6284 13.1412C29.6284 13.4663 29.8921 13.73 30.2172 13.73H32.2192C32.2843 13.73 32.337 13.7827 32.337 13.8478V15.8498C32.337 16.1749 32.6007 16.4386 32.9258 16.4386C33.251 16.4386 33.5147 16.1749 33.5147 15.8498V13.8478C33.5147 13.7827 33.5674 13.73 33.6324 13.73H35.6344C35.9596 13.73 36.2232 13.4663 36.2232 13.1412C36.2232 12.816 35.9596 12.5523 35.6344 12.5523Z" fill="#333333"/>
</g>
<defs>
<clipPath id="clip0">
<rect width="21.4332" height="21.4332" fill="white" transform="translate(9.84375 12.3168)"/>
</clipPath>
<clipPath id="clip1">
<rect width="6.59483" height="6.59483" fill="white" transform="translate(29.6284 9.84375)"/>
</clipPath>
</defs>
</svg>
