<svg width="30" height="25" viewBox="0 0 30 25" fill="none" xmlns="http://www.w3.org/2000/svg">
<path d="M7.71854 2.86086V1.90723H4.59141L2.57642 4.9994L3.46477 5.49052L5.1783 2.86086H7.71854Z" fill="#333333"/>
<path d="M17.4269 10.2588L18.3152 9.76771L16.3002 6.67554H13.1731V7.62917H15.7133L17.4269 10.2588Z" fill="#333333"/>
<path d="M20.1999 14.7815L21.9046 12.1662L21.0163 11.675L18.9919 14.7815L21.167 18.1193H24.4314V17.1656H21.7539L20.1999 14.7815Z" fill="#333333"/>
<path d="M3.46477 14.5359L2.57642 15.027L4.59141 18.1192H7.71854V17.1655H5.1783L3.46477 14.5359Z" fill="#333333"/>
<path d="M16.1436 16.2119H15.1077V17.1656H16.1436V16.2119Z" fill="#333333"/>
<path d="M10.7046 19.5497L12.7289 22.6561L13.6173 22.165L11.9125 19.5497L13.4665 17.1656H14.0721V16.2119H12.8796L10.7046 19.5497Z" fill="#333333"/>
<path d="M20.5809 9.53638L17.473 4.76819H12.293L9.18506 0H3.41876L0 5.24501L3.10796 10.0132L0 14.7814L3.41876 20.0264H8.59869L11.7067 24.7946H17.4735L20.5814 20.0264H25.7614L29.1801 14.7814L25.7614 9.53638H20.5809ZM19.6838 10.0132L18.2852 12.1589L16.8866 14.3046H12.2935L10.895 12.1589L9.49637 10.0132L10.895 7.86752L12.2935 5.72183H16.8866L19.6838 10.0132ZM4.00513 0.953638H8.59817L11.3953 5.24501L9.99676 7.3907L8.59817 9.53638H4.00513L1.20796 5.24501L4.00513 0.953638ZM1.20796 14.7814L4.00513 10.49H8.59817L9.99676 12.6357L11.3953 14.7814L9.99676 16.9271L8.59817 19.0728H4.00513L1.20796 14.7814ZM16.8866 23.841H12.2935L9.49637 19.5496L10.895 17.4039L12.2935 15.2582H16.8866L18.2852 17.4039L19.6838 19.5496L16.8866 23.841ZM25.1745 19.0728H20.5814L19.1829 16.9271L17.7843 14.7814L19.1829 12.6357L20.5814 10.49H25.1745L27.9716 14.7814L25.1745 19.0728Z" fill="#333333"/>
</svg>
