<svg width="29" height="29" viewBox="0 0 29 29" fill="none" xmlns="http://www.w3.org/2000/svg">
<g clip-path="url(#clip0)">
<path d="M19.5435 11.3478C19.8915 11.3478 20.1739 11.0654 20.1739 10.7174V3.15215C20.1739 1.41469 18.7605 0 17.0217 0H3.15215C1.41345 0 0 1.41469 0 3.15215V25.8478C0 27.5852 1.41345 28.9999 3.15215 28.9999H17.0217C18.7605 28.9999 20.1739 27.5852 20.1739 25.8478V18.2826C20.1739 17.9346 19.8914 17.6521 19.5434 17.6521C19.1954 17.6521 18.913 17.9346 18.913 18.2826V25.8478C18.913 26.8905 18.0645 27.7391 17.0217 27.7391H3.15215C2.10939 27.7391 1.26085 26.8905 1.26085 25.8478V3.15215C1.26085 2.10939 2.10939 1.26085 3.15215 1.26085H17.0217C18.0645 1.26085 18.913 2.10939 18.913 3.15215V10.7174C18.913 11.0654 19.1955 11.3478 19.5435 11.3478Z" fill="black"/>
<path d="M28.3695 13.8696H8.19564C7.84764 13.8696 7.56519 14.1521 7.56519 14.5001C7.56519 14.8481 7.84764 15.1305 8.19564 15.1305H28.3695C28.7175 15.1305 29 14.848 29 14.5C29 14.152 28.7175 13.8696 28.3695 13.8696Z" fill="black"/>
<path d="M28.8148 14.0562L25.0322 10.2736C24.7863 10.0277 24.3866 10.0277 24.1407 10.2736C23.8948 10.5194 23.8948 10.9192 24.1407 11.165L27.477 14.5013L24.1407 17.8375C23.8948 18.0834 23.8948 18.4831 24.1407 18.729C24.2643 18.8513 24.4256 18.9131 24.587 18.9131C24.7485 18.9131 24.9098 18.8513 25.0322 18.7303L28.8148 14.9477C29.0606 14.7018 29.0606 14.302 28.8148 14.0562Z" fill="black"/>
</g>
<defs>
<clipPath id="clip0">
<rect width="29" height="29" fill="white"/>
</clipPath>
</defs>
</svg>
