<svg width="55" height="51" viewBox="0 0 55 51" fill="none" xmlns="http://www.w3.org/2000/svg">
<g clip-path="url(#clip0)">
<path d="M13.0497 13.0267V11.4044H7.76274L4.35603 16.6648L5.85796 17.5002L8.75497 13.0267H13.0497Z" fill="#333333"/>
<path d="M29.4632 25.6118L30.9651 24.7763L27.5584 19.516H22.2714V21.1383H26.5662L29.4632 25.6118Z" fill="#333333"/>
<path d="M34.152 33.3057L37.0341 28.8565L35.5322 28.021L32.1097 33.3057L35.7871 38.9838H41.3061V37.3614H36.7793L34.152 33.3057Z" fill="#333333"/>
<path d="M5.85796 32.8879L4.35603 33.7234L7.76274 38.9838H13.0497V37.3615H8.75497L5.85796 32.8879Z" fill="#333333"/>
<path d="M27.2939 35.7391H25.5424V37.3614H27.2939V35.7391Z" fill="#333333"/>
<path d="M18.0975 41.4172L21.52 46.7019L23.0219 45.8664L20.1398 41.4172L22.7671 37.3614H23.7909V35.7391H21.7749L18.0975 41.4172Z" fill="#333333"/>
<path d="M51.5323 10.3873C49.7659 8.82743 47.7088 7.94327 45.966 7.8508C46.1665 7.44846 46.283 7.00557 46.283 6.53754C46.283 5.84238 46.0326 5.20157 45.6148 4.6735L45.8022 4.34174C46.5326 3.05282 47.7911 2.09079 49.3464 1.63249L48.8157 0.0864258C46.8181 0.675324 45.1962 1.91882 44.2504 3.58818L44.2276 3.62793C43.7494 3.42027 43.2187 3.29292 42.6512 3.29292C42.0838 3.29292 41.553 3.42027 41.0749 3.62793L41.0521 3.58818C40.1072 1.91801 38.4861 0.674513 36.4877 0.0864258L35.9578 1.63249C37.5132 2.09079 38.7716 3.05282 39.5011 4.34174L39.6894 4.6735C39.2717 5.20157 39.0212 5.84238 39.0212 6.53754C39.0212 7.04208 39.1613 7.51336 39.3925 7.94002C37.8302 8.21014 36.1014 9.04806 34.5838 10.3881C32.7604 11.9958 31.6727 13.9531 31.6727 15.62C31.6727 16.5366 32.0055 17.3145 32.6352 17.8702C33.2701 18.4299 34.1371 18.6984 35.1223 18.6984C35.8676 18.6984 36.6812 18.5361 37.5105 18.2393C38.2733 21.4255 40.2902 23.5718 42.6512 23.5718C45.0885 23.5718 47.1588 21.2632 47.8611 17.9359C48.9436 18.4315 50.0251 18.6984 50.9929 18.6984C51.9781 18.6984 52.8451 18.4307 53.48 17.8702C54.1097 17.3145 54.4425 16.5366 54.4425 15.62C54.4425 13.9531 53.3548 11.9958 51.5323 10.3873ZM43.0576 13.6652C43.2581 14.0131 43.4955 14.3587 43.7617 14.6994C43.3011 14.6702 42.8413 14.6604 42.3771 14.6677C42.6329 14.3376 42.8632 14.0026 43.0576 13.6652ZM44.5315 6.53754C44.5315 7.43143 43.6881 8.15985 42.6512 8.15985C41.6152 8.15985 40.7727 7.43143 40.7727 6.53754C40.7727 5.64283 41.6161 4.91523 42.6512 4.91523C43.6881 4.91523 44.5315 5.64283 44.5315 6.53754ZM33.8437 16.6964C33.5652 16.4507 33.4242 16.0881 33.4242 15.62C33.4242 14.4057 34.3315 12.8508 35.7923 11.561C38.1157 9.50961 40.7859 9.00994 41.7273 9.84056C42.0049 10.0863 42.1468 10.4481 42.1468 10.9162C42.1468 12.1296 41.2395 13.6854 39.7788 14.976C37.4562 17.029 34.7852 17.5295 33.8437 16.6964ZM42.6512 21.9495C41.6108 21.9495 40.6116 21.1034 39.9127 19.7715C41.6354 19.4487 43.6628 19.4471 45.3854 19.7699C44.6883 21.0978 43.6952 21.9495 42.6512 21.9495ZM45.9931 18.236C43.8992 17.8012 41.4033 17.7988 39.3094 18.2311C39.2402 17.9886 39.1771 17.7404 39.1272 17.4824C39.6562 17.1775 40.1755 16.8173 40.6773 16.4036C42.3053 16.1903 44.1295 16.2552 45.6569 16.5829C45.853 16.737 46.0518 16.8814 46.2532 17.0193C46.1902 17.4411 46.1035 17.8491 45.9931 18.236ZM52.2715 16.6964C51.3318 17.5287 48.6607 17.0282 46.3373 14.976C44.8766 13.6854 43.9693 12.1296 43.9693 10.9162C43.9693 10.4481 44.1103 10.0863 44.3888 9.84056C44.6751 9.58748 45.1226 9.45688 45.6717 9.45688C46.925 9.45688 48.708 10.1342 50.3238 11.561C51.7837 12.8508 52.691 14.4057 52.691 15.62C52.691 16.0881 52.55 16.4507 52.2715 16.6964Z" fill="#333333"/>
<path d="M34.7957 24.3829L29.5411 16.2713H20.7835L15.529 8.15979H5.78001L0 17.0825L5.25456 25.194L0 33.3056L5.78001 42.2283H14.5376L19.7922 50.3398H29.542L34.7966 42.2283H43.5541L49.3342 33.3056L43.5541 24.3829H34.7957ZM33.2789 25.194L30.9143 28.8442L28.5498 32.4944H20.7844L18.4198 28.8442L16.0553 25.194L18.4198 21.5438L20.7844 17.8936H28.5498L33.2789 25.194ZM6.77137 9.7821H14.5367L19.2658 17.0825L16.9013 20.7327L14.5367 24.3829H6.77137L2.04227 17.0825L6.77137 9.7821ZM2.04227 33.3056L6.77137 26.0052H14.5367L16.9013 29.6554L19.2658 33.3056L16.9013 36.9558L14.5367 40.606H6.77137L2.04227 33.3056ZM28.5498 48.7175H20.7844L16.0553 41.4171L18.4198 37.7669L20.7844 34.1167H28.5498L30.9143 37.7669L33.2789 41.4171L28.5498 48.7175ZM42.5619 40.606H34.7966L32.432 36.9558L30.0674 33.3056L32.432 29.6554L34.7966 26.0052H42.5619L47.291 33.3056L42.5619 40.606Z" fill="#333333"/>
</g>
<defs>
<clipPath id="clip0">
<rect width="54.4425" height="50.4262" fill="white"/>
</clipPath>
</defs>
</svg>
